<svg id="Capa_1" enable-background="new 0 0 512 512" height="512" viewBox="0 0 512 512" width="512" xmlns="http://www.w3.org/2000/svg"><g><g><path d="m363.686 77.63c-33.274 2.102-59.951 28.779-62.054 62.053-2.53 40.03 30.522 73.208 70.664 70.664 33.273-2.102 59.95-28.779 62.053-62.053 2.53-40.023-30.511-73.207-70.663-70.664zm55.695 69.718c-1.628 25.754-22.276 46.402-48.031 48.03-31.238 1.954-56.704-23.805-54.749-54.749 1.628-25.755 22.276-46.403 48.031-48.031 31.071-1.954 56.713 23.656 54.749 54.75z"/><path d="m482.487 108.66c-10.809-.041-16.159-13.047-8.517-20.69 5.561-5.56 8.623-12.953 8.623-20.817s-3.062-15.256-8.623-20.816l-8.665-8.665c-11.439-11.439-29.596-11.275-41.333.374-7.672 7.613-20.652 2.201-20.652-8.608-.001-16.232-13.207-29.438-29.44-29.438h-11.778c-16.233 0-29.439 13.206-29.439 29.439 0 10.819-13.017 16.243-20.69 8.57-5.56-5.561-12.953-8.623-20.816-8.623-7.864 0-15.256 3.062-20.816 8.623l-8.328 8.328c-2.287 2.287-4.15 4.901-5.553 7.735-10.787-6.622-23.467-10.448-37.025-10.448h-65.477c-14.81 0-28.04 9.391-32.922 23.369-.339.971-1.295 1.624-2.38 1.624-19.349 0-35.091 15.742-35.091 35.091 0 4.142 3.358 7.499 7.499 7.499 4.142 0 7.499-3.358 7.499-7.499 0-11.079 9.013-20.092 20.092-20.092 7.453 0 14.1-4.692 16.54-11.677 2.782-7.965 10.321-13.316 18.762-13.316h65.477c30.873 0 55.99 25.117 55.99 55.989v40.564c-11.614 3.263-13.165 7.614-22.03 8.08v-33.966c0-17.246-14.031-31.277-31.277-31.277h-.286c-12.842 0-18.087 5.343-33.367 5.343h-2.938c-15.121 0-20.627-5.343-33.367-5.343h-.286c-17.246 0-31.277 14.031-31.277 31.277v29.237c-7.1-3.004-15.769-4.14-22.03-4.558v-14.779c0-4.142-3.358-7.499-7.499-7.499-4.142 0-7.499 3.358-7.499 7.499v18.096c-5.097 4.235-8.124 10.53-8.124 17.332v16.706c0 11.998 9.408 21.839 21.234 22.536 2.248 21.735 12.379 41.649 28.424 55.465 2.43 2.092 4.917 4.035 7.451 5.852v31.544c0 2.972-2.226 5.502-5.179 5.886-.001 0-.001 0-.002 0-21.965 2.85-62.101 9.096-84.122 18.901-26.26 11.692-43.227 37.82-43.227 66.565v74.57c-.002 21.702 17.653 39.357 39.354 39.357h295.231c21.701 0 39.356-17.655 39.356-39.356v-25.326c0-4.142-3.358-7.499-7.499-7.499s-7.499 3.358-7.499 7.499v25.326c0 13.431-10.927 24.357-24.357 24.357h-19.269v-40.895c0-4.142-3.358-7.499-7.499-7.499s-7.499 3.358-7.499 7.499v40.895h-77.957l-13.839-102.288 7.022-9.864c1.825.495 3.693.757 5.563.757 4.962 0 9.908-1.736 13.905-5.167l33.713-28.937c5.654-4.853 8.288-11.999 7.239-19.188 17.292 3.127 36.466 7.471 48.651 12.896 20.854 9.285 34.329 30.035 34.329 52.863v14.199c0 4.142 3.358 7.499 7.499 7.499s7.499-3.358 7.499-7.499v-14.199c0-28.745-16.968-54.873-43.227-66.565-22.021-9.804-62.157-16.05-84.122-18.901h-.001c-2.953-.384-5.179-2.913-5.179-5.886v-31.544c2.534-1.817 5.021-3.76 7.451-5.852 7.4-6.372 13.523-14.052 18.214-22.598l3.239 3.239c11.505 11.505 30.127 11.507 41.633 0 7.651-7.651 20.69-2.282 20.69 8.57 0 16.233 13.206 29.439 29.439 29.439h11.778c16.233 0 29.439-13.206 29.439-29.439 0-10.824 13.022-16.239 20.69-8.57 5.56 5.561 12.953 8.623 20.817 8.623s15.256-3.062 20.816-8.622l8.328-8.328c11.478-11.479 11.478-30.155 0-41.633-7.643-7.643-2.291-20.649 8.517-20.69 16.538-.062 29.492-12.785 29.492-28.962v-12.731c-.001-16.178-12.955-28.9-29.493-28.963zm-285.638 276.62h-19.711l-5.747-8.073 15.603-11.234 15.603 11.234zm-40.275-15.886c-2.389 1.722-5.618 1.583-7.853-.335l-33.714-28.937c-2.877-2.47-2.229-5.667-1.962-6.588.265-.914 1.413-3.913 5.086-4.504 3.145-.462 6.021-.863 8.513-1.197l46.906 29.338zm-141.554 103.25v-74.57c0-22.828 13.475-43.577 34.329-52.863 12.185-5.425 31.359-9.769 48.651-12.896-1.05 7.189 1.585 14.335 7.238 19.188l33.714 28.937c3.997 3.431 8.942 5.167 13.904 5.167 1.869 0 3.738-.262 5.563-.757l7.022 9.864-13.839 102.288h-77.957v-40.895c0-4.142-3.358-7.499-7.499-7.499s-7.499 3.358-7.499 7.499v40.895h-19.27c-13.43-.001-24.357-10.928-24.357-24.358zm151.717 24.357 13.086-96.722h14.339l13.086 96.722zm94.204-163.468c.267.921.914 4.119-1.963 6.588l-33.713 28.937c-2.235 1.917-5.464 2.056-7.852.335l-16.977-12.224 46.906-29.338c2.492.334 5.369.735 8.515 1.197 3.671.593 4.819 3.592 5.084 4.505zm-29.591-13.39-44.357 27.744-44.358-27.744c3.069-3.66 4.914-8.353 4.914-13.421v-22.685c25.168 11.929 53.716 11.93 78.888 0v22.685c0 5.068 1.845 9.762 4.913 13.421zm7.751-62.183c-30.967 26.664-73.243 26.669-104.215 0-14.607-12.577-23.234-31.429-23.67-51.72-.087-4.078-3.418-7.338-7.497-7.338h-5.702c-4.178 0-7.577-3.399-7.577-7.577v-16.706c0-2.311 1.057-4.438 2.815-5.862 8.627.194 21.214 1.934 24.943 5.612 2.948 2.907 7.317 3.755 11.132 2.159 3.805-1.592 6.264-5.288 6.264-9.416v-37.821c0-8.976 7.302-16.278 16.278-16.278 13.79 1.013 17.013 5.343 33.653 5.343h2.938c17.214 0 23.722-5.343 33.367-5.343h.286c8.976 0 16.278 7.302 16.278 16.278v35.082c0 7.671 6.241 13.912 13.939 13.912 14.193 0 18.026-6.594 28.895-9.104 1.461 1.406 2.319 3.351 2.319 5.439v16.706c0 4.178-3.399 7.577-7.577 7.577h-5.702c-4.079 0-7.41 3.26-7.497 7.338-.436 20.291-9.063 39.142-23.67 51.719zm257.879-107.606c0 7.799-6.391 13.933-14.55 13.964-24.127.091-36.111 29.25-19.066 46.295 5.63 5.63 5.63 14.791 0 20.422l-8.328 8.328c-2.727 2.727-6.353 4.23-10.211 4.23-3.857 0-7.483-1.502-10.211-4.23-17.078-17.078-46.294-5.012-46.294 19.176 0 7.962-6.478 14.44-14.44 14.44h-11.778c-7.962 0-14.44-6.478-14.44-14.44 0-24.158-29.194-36.276-46.295-19.176-5.644 5.644-14.777 5.644-20.421 0l-7.457-7.456c1.878-5.803 3.181-11.845 3.822-18.044 11.826-.697 21.234-10.538 21.234-22.536v-16.706c0-6.801-3.027-13.097-8.124-17.332v-42.674c0-19.955-8.289-38.001-21.59-50.911.619-2.546 1.907-4.881 3.785-6.759l8.329-8.328c2.727-2.727 6.353-4.23 10.21-4.23s7.484 1.502 10.211 4.23c17.079 17.078 46.294 5.012 46.294-19.176 0-7.962 6.478-14.44 14.44-14.44h11.778c7.962 0 14.44 6.478 14.44 14.44 0 24.136 29.115 36.226 46.216 19.253 5.792-5.746 14.648-5.929 20.162-.415l8.665 8.666c2.727 2.727 4.23 6.353 4.23 10.21s-1.502 7.484-4.23 10.211c-17.068 17.067-5.029 46.203 19.066 46.294 8.159.031 14.55 6.165 14.55 13.964v12.73z"/></g></g></svg>