<svg xmlns="http://www.w3.org/2000/svg" xmlns:xlink="http://www.w3.org/1999/xlink" width="618.93" height="660.806" viewBox="0 0 618.93 660.806">
  <defs>
    <linearGradient id="linear-gradient" x1="0.117" y1="2.24" x2="0.568" y2="0.35" gradientUnits="objectBoundingBox">
      <stop offset="0" stop-color="#0c3588"/>
      <stop offset="1" stop-color="#0c3588" stop-opacity="0"/>
    </linearGradient>
  </defs>
  <g id="Group_6831" data-name="Group 6831" transform="translate(-81.841 -76.821)">
    <g id="Group_6047" data-name="Group 6047" transform="translate(700.772 127.627) rotate(90)">
      <rect id="Rectangle_91" data-name="Rectangle 91" width="610" height="615" rx="305" transform="translate(0 0)" fill="url(#linear-gradient)"/>
    </g>
    <g id="Group_6046" data-name="Group 6046" transform="translate(81.841 591.637) rotate(-90)" opacity="0.35">
      <g id="Group_4823" data-name="Group 4823" transform="translate(0 0)">
        <g id="Group_4822" data-name="Group 4822" transform="translate(0)">
          <g id="Path_1427" data-name="Path 1427" transform="translate(227.686 406.167) rotate(90)" fill="#e8e8e8">
            <path d="M 2.11983847618103 148.2911682128906 L 0.7043845057487488 146.4132537841797 C 47.33295822143555 112.1555938720703 75.76274871826172 57.67561340332031 76.84637451171875 0.5000025629997253 L 78.88008117675781 0.5000025629997253 C 78.44140625 24.53895950317383 73.49847412109375 47.8962516784668 64.18598937988281 69.92528533935547 C 54.73821258544922 92.24950408935547 41.22251129150391 112.2928009033203 24.01441192626953 129.4982299804688 C 17.18787002563477 136.3236389160156 9.823339462280273 142.6446838378906 2.11983847618103 148.2911682128906 Z" stroke="none"/>
            <path d="M 77.33631134033203 1 C 76.10206604003906 57.98784637451172 47.78958129882813 112.2465362548828 1.407913208007813 146.5159606933594 L 2.221771240234375 147.595703125 C 9.760574340820313 142.0387268066406 16.96977615356445 135.8346405029297 23.66086959838867 129.1446228027344 C 40.8232307434082 111.9849624633789 54.30295181274414 91.99508666992188 63.7254524230957 69.73058319091797 C 72.94675445556641 47.91722869873047 77.87211608886719 24.79879760742188 78.37014007568359 1 L 77.33631134033203 1 M 76.35507202148438 0 L 79.38551330566406 0 L 79.38853454589844 0 L 79.38853454589844 0.0030975341796875 C 79.00875091552734 24.28781890869141 74.04878997802734 47.87856292724609 64.64653015136719 70.11996459960938 C 55.1734504699707 92.50398254394531 41.62174987792969 112.6006774902344 24.3679313659668 129.8517761230469 C 17.41043090820313 136.8081359863281 9.891990661621094 143.2458953857422 2.017112731933594 148.9855651855469 L -7.62939453125e-06 146.3094177246094 C 46.88359069824219 112.063102722168 75.42642974853516 57.36910247802734 76.35507202148438 0 Z" stroke="none" fill="#fff"/>
          </g>
          <g id="Path_1434" data-name="Path 1434" transform="translate(346.907 166.222) rotate(-56)" fill="#e8e8e8">
            <path d="M 2.119839668273926 148.2911682128906 L 0.7043830752372742 146.4132385253906 C 47.33295822143555 112.1556015014648 75.76274871826172 57.67562103271484 76.84637451171875 0.5000101923942566 L 78.88008117675781 0.5000101923942566 C 78.44140625 24.53898620605469 73.49847412109375 47.89627838134766 64.18598937988281 69.92529296875 C 54.73823165893555 92.24948883056641 41.22253036499023 112.2927932739258 24.01441192626953 129.4982147216797 C 17.18789100646973 136.3236083984375 9.823378562927246 142.6446533203125 2.119839668273926 148.2911682128906 Z" stroke="none"/>
            <path d="M 77.33631134033203 1.000015258789063 C 76.10206604003906 57.98785400390625 47.78958129882813 112.2465286254883 1.407913208007813 146.5159606933594 L 2.221763610839844 147.595703125 C 9.760658264160156 142.0386505126953 16.96983337402344 135.8345642089844 23.66086959838867 129.1446228027344 C 40.82324981689453 111.9849548339844 54.30297088623047 91.99504852294922 63.7254524230957 69.7305908203125 C 72.94675445556641 47.91725921630859 77.87211608886719 24.79880523681641 78.37014007568359 1.000015258789063 L 77.33631134033203 1.000015258789063 M 76.35507202148438 1.52587890625e-05 L 79.38551330566406 1.52587890625e-05 L 79.38853454589844 1.52587890625e-05 L 79.38853454589844 0.0031280517578125 C 79.00875091552734 24.28784942626953 74.04878997802734 47.87859344482422 64.64653015136719 70.11997222900391 C 55.1734504699707 92.50399017333984 41.62174987792969 112.6006698608398 24.3679313659668 129.8517913818359 C 17.41043090820313 136.8081512451172 9.891990661621094 143.2458953857422 2.017112731933594 148.9855651855469 L -7.62939453125e-06 146.3094329833984 C 46.88360977172852 112.0630950927734 75.42642974853516 57.36911010742188 76.35507202148438 1.52587890625e-05 Z" stroke="none" fill="#fff"/>
          </g>
          <g id="Path_1429" data-name="Path 1429" transform="matrix(-0.799, -0.602, 0.602, -0.799, 144.548, 166.762)" fill="#e8e8e8">
            <path d="M 2.119829893112183 148.2911682128906 L 0.7043758034706116 146.4132537841797 C 47.33295059204102 112.1555709838867 75.76275634765625 57.67561340332031 76.84638214111328 0.5000025629997253 L 78.88008880615234 0.5000025629997253 C 78.44141387939453 24.53895950317383 73.49848937988281 47.8962516784668 64.18600463867188 69.92528533935547 C 54.73824310302734 92.24948120117188 41.22254180908203 112.2927856445313 24.01442337036133 129.4982299804688 C 17.18792152404785 136.3235778808594 9.823406219482422 142.6446380615234 2.119829893112183 148.2911682128906 Z" stroke="none"/>
            <path d="M 77.33631896972656 1 C 76.10208129882813 57.98783111572266 47.78958129882813 112.2465362548828 1.407913208007813 146.5159606933594 L 2.221755981445313 147.595703125 C 9.760635375976563 142.0386657714844 16.96984481811523 135.8345794677734 23.66088104248047 129.1446228027344 C 40.82326126098633 111.9849395751953 54.30298233032227 91.99504089355469 63.7254638671875 69.73058319091797 C 72.94676971435547 47.91722869873047 77.87213134765625 24.79881286621094 78.37017059326172 1 L 77.33631896972656 1 M 76.35507965087891 0 L 79.38554382324219 0 L 79.38856506347656 0 L 79.38856506347656 0.0030975341796875 C 79.00876617431641 24.28781890869141 74.04880523681641 47.87856292724609 64.64654541015625 70.11996459960938 C 55.1734619140625 92.50398254394531 41.62176132202148 112.6006622314453 24.36794281005859 129.8517761230469 C 17.41044235229492 136.8081359863281 9.892005920410156 143.2458801269531 2.017105102539063 148.9855651855469 L 0 146.3094177246094 C 46.88360214233398 112.0630798339844 75.42644500732422 57.36910247802734 76.35507965087891 0 Z" stroke="none" fill="#fff"/>
          </g>
          <g id="Path_1428" data-name="Path 1428" transform="translate(96.345 265.218) rotate(150)" fill="#ffc02d">
            <path d="M 2.119826078414917 80.02440643310547 L 0.7043750882148743 78.14649963378906 C 27.71681976318359 58.30221557617188 48.91887283325195 31.53582954406738 62.06126403808594 0.685834527015686 C 62.59822082519531 1.019486427307129 63.53116607666016 1.667310953140259 64.03105926513672 2.02360200881958 C 54.59058380126953 24.20206832885742 41.12905120849609 44.11950302124023 24.0144157409668 61.23146438598633 C 17.18783760070801 68.05691528320313 9.823306083679199 74.37796783447266 2.119826078414917 80.02440643310547 Z" stroke="none"/>
            <path d="M 62.28776931762695 1.427467346191406 C 49.15953063964844 31.97434997558594 28.13945770263672 58.50050735473633 1.407932281494141 78.24922180175781 L 2.221759796142578 79.32894134521484 C 9.760635375976563 73.77193450927734 16.96981811523438 67.56784057617188 23.66088104248047 60.87787628173828 C 40.63363647460938 43.90777587890625 54.00550842285156 24.16770553588867 63.41268157958984 2.198593139648438 C 63.06949234008789 1.957717895507813 62.65066146850586 1.668853759765625 62.28776931762695 1.427467346191406 M 61.81290435791016 -7.62939453125e-06 C 62.07855224609375 -7.62939453125e-06 64.65576171875 1.85321044921875 64.64655303955078 1.85321044921875 C 64.64655303955078 1.85321044921875 64.64654541015625 1.85321044921875 64.64654541015625 1.85321044921875 C 55.17344665527344 24.23723983764648 41.62175750732422 44.33391952514648 24.36793899536133 61.58504104614258 C 17.41043853759766 68.54139709472656 9.891994476318359 74.97914123535156 2.017105102539063 80.71881103515625 L 0 78.04268646240234 C 27.61452484130859 57.87152862548828 48.86621475219727 30.60660934448242 61.79471588134766 0.0340728759765625 C 61.78583526611328 0.01079559326171875 61.79260635375977 -7.62939453125e-06 61.81290435791016 -7.62939453125e-06 Z" stroke="none" fill="#fff"/>
          </g>
          <g id="Path_1431" data-name="Path 1431" transform="translate(434.283 195.246)" fill="#ffc02d">
            <path d="M 16.36872482299805 61.74792098999023 L 13.96933650970459 61.74792098999023 C 12.93844223022461 40.80052947998047 8.46509838104248 20.36999893188477 0.6695526838302612 1.003607273101807 C 1.284935712814331 0.8602936863899231 2.401146173477173 0.6588069200515747 3.00857138633728 0.5566420555114746 C 6.942560195922852 10.32347393035889 10.06468391418457 20.44944190979004 12.28973007202148 30.65944290161133 C 14.50513935089111 40.82393264770508 15.87697410583496 51.28056716918945 16.36872482299805 61.74792098999023 Z" stroke="none"/>
            <path d="M 2.69505786895752 1.117713928222656 C 2.281192779541016 1.190284729003906 1.781144142150879 1.282142639160156 1.354174613952637 1.367931365966797 C 8.975235939025879 20.47501754760742 13.37740135192871 40.61045455932617 14.44473171234131 61.24792098999023 L 15.84393978118896 61.24792098999023 C 15.33288288116455 50.98310089111328 13.97378826141357 40.73395919799805 11.80119037628174 30.76591300964355 C 9.610508918762207 20.71352767944336 6.547924995422363 10.74294662475586 2.69505786895752 1.117713928222656 M 3.322940826416016 3.814697265625e-06 C 7.337830543518066 9.906864166259766 10.51910018920898 20.1864013671875 12.77826023101807 30.55298233032227 C 15.03643989562988 40.91369247436523 16.42059135437012 51.5772705078125 16.89203071594238 62.24792098999023 L 13.49274063110352 62.24792098999023 C 12.50139999389648 41.0247802734375 7.968440055847168 20.32715225219727 0.01996040344238281 0.7305908203125 C 0.005069732666015625 0.7236328125 -0.001649856567382813 0.7159423828125 0.000301361083984375 0.7069129943847656 C 0.03741073608398438 0.5340538024902344 3.290470123291016 0.00109100341796875 3.32196044921875 0.000614166259765625 L 3.321840286254883 0.00048065185546875 L 3.322940826416016 3.814697265625e-06 Z" stroke="none" fill="#fff"/>
          </g>
          <ellipse id="Ellipse_48" data-name="Ellipse 48" cx="3.565" cy="3.565" rx="3.565" ry="3.565" transform="translate(388.894 96.011) rotate(34)" fill="#e8e8e8"/>
          <ellipse id="Ellipse_41" data-name="Ellipse 41" cx="3.565" cy="3.565" rx="3.565" ry="3.565" transform="matrix(0.602, -0.799, 0.799, 0.602, 76.63, 121.158)" fill="#e8e8e8"/>
          <path id="Path_49" data-name="Path 49" d="M79.389,148.986H76.355C75.426,91.616,46.884,36.922,0,2.676L2.017,0A190.012,190.012,0,0,1,24.368,19.134,187.363,187.363,0,0,1,64.647,78.866a186.735,186.735,0,0,1,14.742,70.117Z" transform="translate(439.231 369.646) rotate(79)" fill="#105bf1"/>
          <ellipse id="Ellipse_47" data-name="Ellipse 47" cx="9.555" cy="9.555" rx="9.555" ry="9.555" transform="translate(373.907 429.376)" fill="#105bf1"/>
          <circle id="Ellipse_50" data-name="Ellipse 50" cx="176" cy="176" r="176" transform="translate(74 92.663)" fill="#fff" stroke="#1d56c9" stroke-width="24"/>
        </g>
      </g>
      <path id="Path_1440" data-name="Path 1440" d="M162.285,0A165.731,165.731,0,0,0,0,131.852a29.8,29.8,0,0,0,3.447-3.126s.131-.528.243-1A163.248,163.248,0,0,1,162.285,2.675c89.622,0,162.774,72.911,163.067,162.531h2.675A165.61,165.61,0,0,0,162.285,0Z" transform="matrix(-0.848, 0.53, -0.53, -0.848, 454.623, 329.62)" fill="rgba(255,255,255,0.4)"/>
      <path id="Path_1441" data-name="Path 1441" d="M177.768,0A181.543,181.543,0,0,0,0,144.431a32.644,32.644,0,0,0,3.775-3.424s.143-.579.266-1.1C22.6,61.645,93.456,2.931,177.768,2.931c98.173,0,178.3,79.867,178.625,178.037h2.931A181.411,181.411,0,0,0,177.768,0Z" transform="matrix(-0.921, 0.391, -0.391, -0.921, 478.5, 369.814)" fill="rgba(255,255,255,0.4)"/>
    </g>
  </g>
</svg>
